<svg version="1.1" id="Layer_1" xmlns="http://www.w3.org/2000/svg" xmlns:xlink="http://www.w3.org/1999/xlink" x="0px" y="0px"
	 width="100%" viewBox="0 0 1200 1200" enable-background="new 0 0 1200 1200" xml:space="preserve">
<path fill="#0D0C0A" opacity="1.000000" stroke="none" 
	d="
M764.000000,1201.000000 
	C509.333344,1201.000000 255.166672,1201.000000 1.000000,1201.000000 
	C1.000000,801.000000 1.000000,401.000000 1.000000,1.000000 
	C401.000000,1.000000 801.000000,1.000000 1201.000000,1.000000 
	C1201.000000,401.000000 1201.000000,801.000000 1201.000000,1201.000000 
	C1055.500000,1201.000000 910.000000,1201.000000 764.000000,1201.000000 
M809.500061,330.831543 
	C648.348389,330.831543 487.196747,330.830933 326.045105,330.833099 
	C316.881561,330.833221 315.511230,332.176147 315.511108,341.152863 
	C315.508301,512.303955 315.507019,683.455017 315.510468,854.606140 
	C315.510651,863.383423 317.056488,865.160522 324.839905,865.161011 
	C496.824249,865.170715 668.808594,865.170471 840.792969,865.160461 
	C848.015930,865.160034 850.060181,863.142517 850.060547,856.065552 
	C850.068481,683.914551 850.068787,511.763550 850.058533,339.612549 
	C850.058167,333.008575 847.989685,330.881622 841.497253,330.847046 
	C831.165100,330.792023 820.832520,330.831818 809.500061,330.831543 
z"/>
<path fill="#FEFEFE" opacity="1.000000" stroke="none" 
	d="
M810.000122,330.831543 
	C820.832520,330.831818 831.165100,330.792023 841.497253,330.847046 
	C847.989685,330.881622 850.058167,333.008575 850.058533,339.612549 
	C850.068787,511.763550 850.068481,683.914551 850.060547,856.065552 
	C850.060181,863.142517 848.015930,865.160034 840.792969,865.160461 
	C668.808594,865.170471 496.824249,865.170715 324.839905,865.161011 
	C317.056488,865.160522 315.510651,863.383423 315.510468,854.606140 
	C315.507019,683.455017 315.508301,512.303955 315.511108,341.152863 
	C315.511230,332.176147 316.881561,330.833221 326.045105,330.833099 
	C487.196747,330.830933 648.348389,330.831543 810.000122,330.831543 
M744.500000,343.999054 
	C606.085693,343.999054 467.671356,343.999054 329.137451,343.999054 
	C329.137451,513.519897 329.137451,682.561096 329.137451,851.753357 
	C498.376740,851.753357 667.408020,851.753357 836.600403,851.753357 
	C836.600403,682.472229 836.600403,513.438721 836.600403,343.999054 
	C806.074036,343.999054 775.787048,343.999054 744.500000,343.999054 
z"/>
<path fill="#0E0D0B" opacity="1.000000" stroke="none" 
	d="
M745.000000,343.999054 
	C775.787048,343.999054 806.074036,343.999054 836.600403,343.999054 
	C836.600403,513.438721 836.600403,682.472229 836.600403,851.753357 
	C667.408020,851.753357 498.376740,851.753357 329.137451,851.753357 
	C329.137451,682.561096 329.137451,513.519897 329.137451,343.999054 
	C467.671356,343.999054 606.085693,343.999054 745.000000,343.999054 
M821.705139,384.502258 
	C821.705078,380.336212 821.712708,376.170135 821.703247,372.004120 
	C821.684570,363.733063 820.085938,362.155029 811.738342,362.155029 
	C659.258911,362.154602 506.779510,362.154663 354.300110,362.154846 
	C345.307220,362.154846 343.992828,363.474915 343.992828,372.510620 
	C343.992554,524.656738 343.992615,676.802856 343.992798,828.948975 
	C343.992828,838.689819 345.138855,839.844971 354.817108,839.845032 
	C506.796570,839.845520 658.776001,839.845520 810.755493,839.844910 
	C820.422485,839.844910 821.704468,838.563538 821.704468,828.941467 
	C821.704590,681.128113 821.705139,533.314758 821.705139,384.502258 
z"/>
<path fill="#FAFAFA" opacity="1.000000" stroke="none" 
	d="
M821.705383,385.001831 
	C821.705139,533.314758 821.704590,681.128113 821.704468,828.941467 
	C821.704468,838.563538 820.422485,839.844910 810.755493,839.844910 
	C658.776001,839.845520 506.796570,839.845520 354.817108,839.845032 
	C345.138855,839.844971 343.992828,838.689819 343.992798,828.948975 
	C343.992615,676.802856 343.992554,524.656738 343.992828,372.510620 
	C343.992828,363.474915 345.307220,362.154846 354.300110,362.154846 
	C506.779510,362.154663 659.258911,362.154602 811.738342,362.155029 
	C820.085938,362.155029 821.684570,363.733063 821.703247,372.004120 
	C821.712708,376.170135 821.705078,380.336212 821.705383,385.001831 
M785.499878,827.822388 
	C793.439575,827.822388 801.379272,827.822388 809.463257,827.822388 
	C809.463257,676.364380 809.463257,525.492065 809.463257,374.541504 
	C658.165222,374.541504 507.157715,374.541504 356.317230,374.541504 
	C356.317230,525.792236 356.317230,676.678955 356.317230,827.822388 
	C499.268280,827.822388 641.884094,827.822388 785.499878,827.822388 
z"/>
<path fill="#0E0D0B" opacity="1.000000" stroke="none" 
	d="
M784.999878,827.822388 
	C641.884094,827.822388 499.268280,827.822388 356.317230,827.822388 
	C356.317230,676.678955 356.317230,525.792236 356.317230,374.541504 
	C507.157715,374.541504 658.165222,374.541504 809.463257,374.541504 
	C809.463257,525.492065 809.463257,676.364380 809.463257,827.822388 
	C801.379272,827.822388 793.439575,827.822388 784.999878,827.822388 
M470.288086,526.180237 
	C467.167603,512.921509 464.252075,499.610321 460.874786,486.417297 
	C456.630768,469.838501 452.069885,453.339325 447.454956,436.859192 
	C446.994598,435.215332 445.258667,432.734650 444.036896,432.688141 
	C434.793549,432.336456 425.530762,432.496002 415.513672,432.496002 
	C413.882996,455.673706 412.162537,478.575745 410.691925,501.493835 
	C409.379913,521.939697 408.371521,542.404785 407.179108,562.858521 
	C405.783112,586.803223 404.288910,610.742310 402.941193,634.689697 
	C402.651642,639.835388 404.629547,640.967041 409.603821,640.119324 
	C414.153137,639.344055 418.881897,638.910583 423.468811,639.229370 
	C430.760040,639.736084 432.271484,638.562561 432.611847,631.080566 
	C434.564087,588.165405 436.591248,545.253540 438.609375,502.341400 
	C438.653778,501.397339 438.892792,500.462433 439.041016,499.523254 
	C440.889282,503.329529 441.960388,507.126892 443.002167,510.932251 
	C447.697205,528.082642 452.155457,545.301880 457.127655,562.371521 
	C464.466888,587.567200 472.136963,612.666992 479.822693,637.759705 
	C480.175476,638.911499 482.032562,640.336609 483.235870,640.381470 
	C496.824646,640.888977 498.773651,639.347656 501.988434,626.274292 
	C502.028107,626.113037 502.029388,625.941772 502.073090,625.781921 
	C509.565521,598.366638 517.090088,570.960083 524.542542,543.533936 
	C528.459656,529.118591 532.232056,514.664124 536.132385,500.244232 
	C536.458862,499.037140 537.262695,497.959198 537.844788,496.821259 
	C539.009094,498.715302 539.190369,500.290588 539.216125,501.868408 
	C539.628357,527.165649 538.369629,552.472595 541.030090,577.755737 
	C543.032776,596.788513 543.857666,615.947327 545.091797,635.057434 
	C545.364502,639.279602 546.768127,641.430298 551.489624,640.939636 
	C555.778809,640.493896 560.160034,640.562561 564.473816,640.832886 
	C568.402649,641.079041 569.765320,639.757874 569.551758,635.750610 
	C568.780579,621.277893 568.415039,606.783508 567.648743,592.310486 
	C565.429199,550.389160 563.113647,508.472809 560.780823,466.557556 
	C560.144348,455.120514 559.314209,443.694244 558.581970,432.403046 
	C554.180115,432.072388 550.545715,431.768890 546.906921,431.534607 
	C543.250000,431.299164 539.590637,431.067352 535.928711,430.949951 
	C529.138977,430.732239 529.015442,430.879425 527.504761,438.387665 
	C513.879028,486.623596 500.253357,534.859497 486.309875,584.220337 
	C483.989044,575.768494 482.001862,568.272034 479.867035,560.817810 
	C476.634064,549.529236 473.298370,538.270081 470.288086,526.180237 
M686.460632,747.499390 
	C686.460632,708.581482 686.460632,669.663635 686.460632,630.855896 
	C698.802246,630.855896 710.747253,630.796936 722.691040,630.890747 
	C726.424011,630.920044 729.055420,629.677612 729.162170,625.701599 
	C729.309509,620.211548 729.180298,614.705261 728.930908,609.216797 
	C728.788208,606.076355 726.999634,604.797852 723.652344,604.749268 
	C689.852722,604.258911 656.055237,603.616577 622.257202,603.020508 
	C618.723267,602.958191 615.774536,606.119202 616.026794,609.629700 
	C616.384644,614.608826 616.898926,619.587219 616.981445,624.571899 
	C617.035461,627.838623 617.903687,629.249268 621.518127,629.371155 
	C632.169006,629.730469 642.800598,630.640015 653.450317,631.069275 
	C656.716614,631.200867 658.128784,631.929993 658.155945,635.586731 
	C658.573853,691.905212 659.131836,748.222595 659.653809,804.540283 
	C659.673218,806.639587 659.656250,808.739258 659.656250,811.664062 
	C666.672913,812.119751 673.269470,812.618469 679.874268,812.952637 
	C684.291626,813.176086 686.342285,811.473816 686.294983,806.488220 
	C686.111694,787.160828 686.366760,767.829346 686.460632,747.499390 
z"/>
<path fill="#F0F0F0" opacity="1.000000" stroke="none" 
	d="
M528.167297,438.033600 
	C529.015442,430.879425 529.138977,430.732239 535.928711,430.949951 
	C539.590637,431.067352 543.250000,431.299164 546.906921,431.534607 
	C550.545715,431.768890 554.180115,432.072388 558.581970,432.403046 
	C559.314209,443.694244 560.144348,455.120514 560.780823,466.557556 
	C563.113647,508.472809 565.429199,550.389160 567.648743,592.310486 
	C568.415039,606.783508 568.780579,621.277893 569.551758,635.750610 
	C569.765320,639.757874 568.402649,641.079041 564.473816,640.832886 
	C560.160034,640.562561 555.778809,640.493896 551.489624,640.939636 
	C546.768127,641.430298 545.364502,639.279602 545.091797,635.057434 
	C543.857666,615.947327 543.032776,596.788513 541.030090,577.755737 
	C538.369629,552.472595 539.628357,527.165649 539.216125,501.868408 
	C539.190369,500.290588 539.009094,498.715302 537.844788,496.821259 
	C537.262695,497.959198 536.458862,499.037140 536.132385,500.244232 
	C532.232056,514.664124 528.459656,529.118591 524.542542,543.533936 
	C517.090088,570.960083 509.565521,598.366638 502.073090,625.781921 
	C502.029388,625.941772 502.028107,626.113037 501.988434,626.274292 
	C498.773651,639.347656 496.824646,640.888977 483.235870,640.381470 
	C482.032562,640.336609 480.175476,638.911499 479.822693,637.759705 
	C472.136963,612.666992 464.466888,587.567200 457.127655,562.371521 
	C452.155457,545.301880 447.697205,528.082642 443.002167,510.932251 
	C441.960388,507.126892 440.889282,503.329529 439.041016,499.523254 
	C438.892792,500.462433 438.653778,501.397339 438.609375,502.341400 
	C436.591248,545.253540 434.564087,588.165405 432.611847,631.080566 
	C432.271484,638.562561 430.760040,639.736084 423.468811,639.229370 
	C418.881897,638.910583 414.153137,639.344055 409.603821,640.119324 
	C404.629547,640.967041 402.651642,639.835388 402.941193,634.689697 
	C404.288910,610.742310 405.783112,586.803223 407.179108,562.858521 
	C408.371521,542.404785 409.379913,521.939697 410.691925,501.493835 
	C412.162537,478.575745 413.882996,455.673706 415.513672,432.496002 
	C425.530762,432.496002 434.793549,432.336456 444.036896,432.688141 
	C445.258667,432.734650 446.994598,435.215332 447.454956,436.859192 
	C452.069885,453.339325 456.630768,469.838501 460.874786,486.417297 
	C464.252075,499.610321 467.167603,512.921509 469.909302,526.582397 
	C469.530487,526.984619 469.054474,526.984131 468.782776,526.754761 
	C467.275970,523.093506 465.825348,519.722229 464.840302,516.219971 
	C457.821777,491.265930 450.836243,466.302124 444.012421,441.294403 
	C443.004333,437.599976 441.290955,435.982391 437.409241,436.210663 
	C433.091980,436.464600 428.735260,436.476044 424.419830,436.206451 
	C420.400879,435.955383 418.972351,437.289886 418.791748,441.496094 
	C417.848694,463.461823 416.629089,485.416321 415.405609,507.369171 
	C413.153412,547.780823 410.871490,588.190857 408.472656,628.593933 
	C408.248779,632.364929 409.044769,634.390076 413.175293,634.078796 
	C414.327240,633.992004 415.500702,634.214661 416.665497,634.270447 
	C425.917542,634.713318 426.133606,634.724182 426.674805,625.476074 
	C428.611115,592.387939 430.634125,559.301514 432.124512,526.191956 
	C432.910767,508.725098 432.610992,491.210663 432.938110,473.720276 
	C432.987213,471.093994 433.785065,468.481689 434.236572,465.862885 
	C434.878632,465.733429 435.520691,465.603943 436.162750,465.474457 
	C437.386810,467.399292 439.159637,469.173279 439.737457,471.275696 
	C441.938812,479.285614 443.635529,487.432617 445.734314,495.472656 
	C457.401855,540.168884 469.202118,584.830688 480.716675,629.566162 
	C481.710724,633.428101 483.554077,634.355530 486.881561,634.123779 
	C490.231049,633.890503 493.561249,634.624268 494.963623,629.677002 
	C503.752441,598.671021 513.244080,567.860962 521.778198,536.786987 
	C527.976868,514.216675 534.871155,491.716492 536.082825,468.060822 
	C536.150940,466.731567 537.621582,465.474182 538.439453,464.183350 
	C539.586060,465.413818 540.969971,466.506531 541.793152,467.924744 
	C542.313354,468.820984 541.986816,470.203735 542.056274,471.367249 
	C542.968811,486.662323 543.884705,501.957214 544.799011,517.252197 
	C545.524109,529.380981 546.635071,541.501526 546.892883,553.640259 
	C547.437622,579.290405 547.487610,604.950989 547.955444,630.603333 
	C547.979919,631.946106 549.851807,634.202332 551.119995,634.401611 
	C555.316650,635.061096 559.630859,634.972412 563.473450,635.151001 
	C563.473450,626.552246 563.817017,618.422791 563.415955,610.330261 
	C561.305298,567.743591 559.059143,525.163391 556.741943,482.587402 
	C556.018005,469.284332 555.000000,455.995239 553.911072,442.716583 
	C553.770752,441.004761 552.449646,437.994965 551.575256,437.958008 
	C544.362976,437.653412 537.127075,437.908844 529.609558,437.989960 
	C528.936279,438.001404 528.551819,438.017487 528.167297,438.033600 
z"/>
<path fill="#EEEEEE" opacity="1.000000" stroke="none" 
	d="
M686.459595,747.999390 
	C686.366760,767.829346 686.111694,787.160828 686.294983,806.488220 
	C686.342285,811.473816 684.291626,813.176086 679.874268,812.952637 
	C673.269470,812.618469 666.672913,812.119751 659.656250,811.664062 
	C659.656250,808.739258 659.673218,806.639587 659.653809,804.540283 
	C659.131836,748.222595 658.573853,691.905212 658.155945,635.586731 
	C658.128784,631.929993 656.716614,631.200867 653.450317,631.069275 
	C642.800598,630.640015 632.169006,629.730469 621.518127,629.371155 
	C617.903687,629.249268 617.035461,627.838623 616.981445,624.571899 
	C616.898926,619.587219 616.384644,614.608826 616.026794,609.629700 
	C615.774536,606.119202 618.723267,602.958191 622.257202,603.020508 
	C656.055237,603.616577 689.852722,604.258911 723.652344,604.749268 
	C726.999634,604.797852 728.788208,606.076355 728.930908,609.216797 
	C729.180298,614.705261 729.309509,620.211548 729.162170,625.701599 
	C729.055420,629.677612 726.424011,630.920044 722.691040,630.890747 
	C710.747253,630.796936 698.802246,630.855896 686.460632,630.855896 
	C686.460632,669.663635 686.460632,708.581482 686.459595,747.999390 
M663.931885,696.500000 
	C663.931885,733.268860 663.931885,770.037781 663.931885,807.163574 
	C667.997131,807.163574 672.128235,806.891907 676.208008,807.233398 
	C681.140015,807.646301 682.199768,805.626648 682.172791,800.941284 
	C681.844666,743.971802 681.784119,687.000854 681.468872,630.031311 
	C681.444702,625.658325 682.822266,624.873413 686.870056,624.974548 
	C698.829407,625.273132 710.801025,625.081299 722.494873,625.081299 
	C722.494873,621.069214 722.210266,617.572876 722.578674,614.146912 
	C722.915894,611.010986 721.986816,610.106812 718.865234,610.051636 
	C688.387146,609.512939 657.911926,608.809692 627.433533,608.293579 
	C626.188782,608.272583 623.966309,609.494873 623.826782,610.391357 
	C623.191589,614.471375 622.977600,618.644348 623.033691,622.778198 
	C623.043274,623.482422 625.111572,624.761169 626.222534,624.754456 
	C636.877136,624.689941 647.530273,624.400330 658.184204,624.190674 
	C660.106567,624.152832 662.030334,624.185303 663.788025,624.185303 
	C664.007507,624.747681 664.116089,624.895630 664.115723,625.043274 
	C664.059631,648.528870 663.995728,672.014404 663.931885,696.500000 
z"/>
<path fill="#EBEBEB" opacity="1.000000" stroke="none" 
	d="
M469.054443,526.984131 
	C469.054474,526.984131 469.530487,526.984619 469.768372,526.991516 
	C473.298370,538.270081 476.634064,549.529236 479.867035,560.817810 
	C482.001862,568.272034 483.989044,575.768494 486.309875,584.220337 
	C500.253357,534.859497 513.879028,486.623596 527.836060,438.210632 
	C528.551819,438.017487 528.936279,438.001404 529.565552,438.380188 
	C524.249634,460.143585 518.721436,481.520660 513.117920,502.877991 
	C508.569702,520.213440 503.756989,537.481384 499.388458,554.861450 
	C495.987274,568.392883 493.157196,582.067078 489.892883,595.634460 
	C489.412292,597.632019 487.932556,599.389160 486.915070,601.257568 
	C486.276062,601.102112 485.637054,600.946594 484.998047,600.791138 
	C481.313812,585.138794 477.475739,569.520447 474.005188,553.820862 
	C472.042938,544.944214 470.684753,535.934143 469.054443,526.984131 
z"/>
<path fill="#12110F" opacity="1.000000" stroke="none" 
	d="
M468.782776,526.754761 
	C470.684753,535.934143 472.042938,544.944214 474.005188,553.820862 
	C477.475739,569.520447 481.313812,585.138794 484.998047,600.791138 
	C485.637054,600.946594 486.276062,601.102112 486.915070,601.257568 
	C487.932556,599.389160 489.412292,597.632019 489.892883,595.634460 
	C493.157196,582.067078 495.987274,568.392883 499.388458,554.861450 
	C503.756989,537.481384 508.569702,520.213440 513.117920,502.877991 
	C518.721436,481.520660 524.249634,460.143585 529.854370,438.384827 
	C537.127075,437.908844 544.362976,437.653412 551.575256,437.958008 
	C552.449646,437.994965 553.770752,441.004761 553.911072,442.716583 
	C555.000000,455.995239 556.018005,469.284332 556.741943,482.587402 
	C559.059143,525.163391 561.305298,567.743591 563.415955,610.330261 
	C563.817017,618.422791 563.473450,626.552246 563.473450,635.151001 
	C559.630859,634.972412 555.316650,635.061096 551.119995,634.401611 
	C549.851807,634.202332 547.979919,631.946106 547.955444,630.603333 
	C547.487610,604.950989 547.437622,579.290405 546.892883,553.640259 
	C546.635071,541.501526 545.524109,529.380981 544.799011,517.252197 
	C543.884705,501.957214 542.968811,486.662323 542.056274,471.367249 
	C541.986816,470.203735 542.313354,468.820984 541.793152,467.924744 
	C540.969971,466.506531 539.586060,465.413818 538.439453,464.183350 
	C537.621582,465.474182 536.150940,466.731567 536.082825,468.060822 
	C534.871155,491.716492 527.976868,514.216675 521.778198,536.786987 
	C513.244080,567.860962 503.752441,598.671021 494.963623,629.677002 
	C493.561249,634.624268 490.231049,633.890503 486.881561,634.123779 
	C483.554077,634.355530 481.710724,633.428101 480.716675,629.566162 
	C469.202118,584.830688 457.401855,540.168884 445.734314,495.472656 
	C443.635529,487.432617 441.938812,479.285614 439.737457,471.275696 
	C439.159637,469.173279 437.386810,467.399292 436.162750,465.474457 
	C435.520691,465.603943 434.878632,465.733429 434.236572,465.862885 
	C433.785065,468.481689 432.987213,471.093994 432.938110,473.720276 
	C432.610992,491.210663 432.910767,508.725098 432.124512,526.191956 
	C430.634125,559.301514 428.611115,592.387939 426.674805,625.476074 
	C426.133606,634.724182 425.917542,634.713318 416.665497,634.270447 
	C415.500702,634.214661 414.327240,633.992004 413.175293,634.078796 
	C409.044769,634.390076 408.248779,632.364929 408.472656,628.593933 
	C410.871490,588.190857 413.153412,547.780823 415.405609,507.369171 
	C416.629089,485.416321 417.848694,463.461823 418.791748,441.496094 
	C418.972351,437.289886 420.400879,435.955383 424.419830,436.206451 
	C428.735260,436.476044 433.091980,436.464600 437.409241,436.210663 
	C441.290955,435.982391 443.004333,437.599976 444.012421,441.294403 
	C450.836243,466.302124 457.821777,491.265930 464.840302,516.219971 
	C465.825348,519.722229 467.275970,523.093506 468.782776,526.754761 
z"/>
<path fill="#11100E" opacity="1.000000" stroke="none" 
	d="
M663.932007,696.000000 
	C663.995728,672.014404 664.059631,648.528870 664.115723,625.043274 
	C664.116089,624.895630 664.007507,624.747681 663.788025,624.185303 
	C662.030334,624.185303 660.106567,624.152832 658.184204,624.190674 
	C647.530273,624.400330 636.877136,624.689941 626.222534,624.754456 
	C625.111572,624.761169 623.043274,623.482422 623.033691,622.778198 
	C622.977600,618.644348 623.191589,614.471375 623.826782,610.391357 
	C623.966309,609.494873 626.188782,608.272583 627.433533,608.293579 
	C657.911926,608.809692 688.387146,609.512939 718.865234,610.051636 
	C721.986816,610.106812 722.915894,611.010986 722.578674,614.146912 
	C722.210266,617.572876 722.494873,621.069214 722.494873,625.081299 
	C710.801025,625.081299 698.829407,625.273132 686.870056,624.974548 
	C682.822266,624.873413 681.444702,625.658325 681.468872,630.031311 
	C681.784119,687.000854 681.844666,743.971802 682.172791,800.941284 
	C682.199768,805.626648 681.140015,807.646301 676.208008,807.233398 
	C672.128235,806.891907 667.997131,807.163574 663.931885,807.163574 
	C663.931885,770.037781 663.931885,733.268860 663.932007,696.000000 
z"/>
</svg>